<svg width="30" height="30" viewBox="0 0 30 30" fill="none" xmlns="http://www.w3.org/2000/svg">
<g opacity="0.87">
<path opacity="0.87" d="M12.5 21.5435C12.5 22.0958 12.9477 22.5435 13.5 22.5435H16.5C17.0523 22.5435 17.5 22.0958 17.5 21.5435V21.0288C17.5 20.4765 17.0523 20.0288 16.5 20.0288H13.5C12.9477 20.0288 12.5 20.4765 12.5 21.0288V21.5435ZM4.75 7.45508C4.19772 7.45508 3.75 7.90279 3.75 8.45508V8.96981C3.75 9.52209 4.19772 9.96981 4.75 9.96981H25.25C25.8023 9.96981 26.25 9.52209 26.25 8.96981V8.45508C26.25 7.90279 25.8023 7.45508 25.25 7.45508H4.75ZM7.5 15.2567C7.5 15.809 7.94772 16.2567 8.5 16.2567H21.5C22.0523 16.2567 22.5 15.809 22.5 15.2567V14.7419C22.5 14.1896 22.0523 13.7419 21.5 13.7419H8.5C7.94772 13.7419 7.5 14.1896 7.5 14.7419V15.2567Z" fill="#CC3366"/>
</g>
</svg>
