<svg width="30" height="30" viewBox="0 0 30 30" fill="none" xmlns="http://www.w3.org/2000/svg">
<g opacity="0.87">
<path opacity="0.87" d="M5.75 21.5435C5.75 22.0958 6.19772 22.5435 6.75 22.5435H20C20.5523 22.5435 21 22.0958 21 21.5435V21.0288C21 20.4765 20.5523 20.0288 20 20.0288H6.75C6.19771 20.0288 5.75 20.4765 5.75 21.0288V21.5435ZM6.75 7.45508C6.19772 7.45508 5.75 7.90279 5.75 8.45508V8.96981C5.75 9.52209 6.19772 9.96981 6.75 9.96981H15.25C15.8023 9.96981 16.25 9.52209 16.25 8.96981V8.45508C16.25 7.90279 15.8023 7.45508 15.25 7.45508H6.75ZM5.75 15.2567C5.75 15.809 6.19772 16.2567 6.75 16.2567H25.5C26.0523 16.2567 26.5 15.809 26.5 15.2567V14.7419C26.5 14.1896 26.0523 13.7419 25.5 13.7419H6.75C6.19772 13.7419 5.75 14.1896 5.75 14.7419V15.2567Z" fill="#CC3366"/>
</g>
</svg>
