<svg width="26" height="24" viewBox="0 0 26 24" fill="none" xmlns="http://www.w3.org/2000/svg">
<g id="search">
<path id="icon/action/search_24px" fill-rule="evenodd" clip-rule="evenodd" d="M16.5202 14.255H17.3444L22.5502 19.255L20.9957 20.745L15.7795 15.755V14.965L15.4978 14.685C14.3085 15.665 12.7645 16.255 11.0849 16.255C7.33967 16.255 4.30383 13.345 4.30383 9.755C4.30383 6.165 7.33967 3.255 11.0849 3.255C14.8302 3.255 17.866 6.165 17.866 9.755C17.866 11.365 17.2505 12.845 16.2281 13.985L16.5202 14.255ZM6.39032 9.755C6.39032 12.245 8.48724 14.255 11.0849 14.255C13.6826 14.255 15.7795 12.245 15.7795 9.755C15.7795 7.26501 13.6826 5.255 11.0849 5.255C8.48724 5.255 6.39032 7.26501 6.39032 9.755Z" fill="#7F7F7F" fill-opacity="0.54"/>
</g>
</svg>
