<svg width="12" height="11" viewBox="0 0 12 11" fill="none" xmlns="http://www.w3.org/2000/svg">
<mask id="mask0_533_864" style="mask-type:alpha" maskUnits="userSpaceOnUse" x="1" y="1" width="10" height="9">
<path d="M11 4.15463L7.405 3.89017L6 1.06641L4.595 3.89443L1 4.15463L3.73 6.17221L2.91 9.17086L6 7.57983L9.09 9.17086L8.275 6.17221L11 4.15463Z" fill="white"/>
</mask>
<g mask="url(#mask0_533_864)">
<path d="M11 4.15468L11.2975 4.55652L12.3803 3.75486L11.0367 3.65603L11 4.15468ZM7.40501 3.89022L6.95736 4.11295L7.08425 4.36797L7.36833 4.38887L7.40501 3.89022ZM6.00001 1.06646L6.44766 0.843721L5.99967 -0.0566406L5.55223 0.843991L6.00001 1.06646ZM4.59501 3.89448L4.6311 4.39318L4.91579 4.37257L5.04279 4.11695L4.59501 3.89448ZM1.00001 4.15468L0.963914 3.65598L-0.384033 3.75354L0.702836 4.55678L1.00001 4.15468ZM3.73001 6.17226L4.2123 6.30415L4.30265 5.97374L4.02718 5.77016L3.73001 6.17226ZM2.91001 9.17091L2.42772 9.03902L2.12771 10.136L3.1389 9.61544L2.91001 9.17091ZM6.00001 7.57988L6.2289 7.13534L6.00001 7.01749L5.77112 7.13534L6.00001 7.57988ZM9.09001 9.17091L8.86112 9.61544L9.87018 10.135L9.57251 9.03977L9.09001 9.17091ZM8.27501 6.17226L7.97749 5.77042L7.70291 5.97371L7.79251 6.3034L8.27501 6.17226ZM11.0367 3.65603L7.44169 3.39157L7.36833 4.38887L10.9633 4.65333L11.0367 3.65603ZM7.85266 3.66748L6.44766 0.843721L5.55236 1.28919L6.95736 4.11295L7.85266 3.66748ZM5.55223 0.843991L4.14723 3.67202L5.04279 4.11695L6.44779 1.28892L5.55223 0.843991ZM4.55892 3.39579L0.963914 3.65598L1.0361 4.65337L4.6311 4.39318L4.55892 3.39579ZM0.702836 4.55678L3.43284 6.57437L4.02718 5.77016L1.29718 3.75257L0.702836 4.55678ZM3.24772 6.04037L2.42772 9.03902L3.3923 9.30279L4.2123 6.30415L3.24772 6.04037ZM3.1389 9.61544L6.2289 8.02441L5.77112 7.13534L2.68112 8.72637L3.1389 9.61544ZM5.77112 8.02441L8.86112 9.61544L9.3189 8.72637L6.2289 7.13534L5.77112 8.02441ZM9.57251 9.03977L8.75751 6.04112L7.79251 6.3034L8.60751 9.30204L9.57251 9.03977ZM8.57253 6.57411L11.2975 4.55652L10.7025 3.75283L7.97749 5.77042L8.57253 6.57411Z" fill="#D1D1D1"/>
</g>
</svg>
