<svg width="12" height="11" viewBox="0 0 12 11" fill="none" xmlns="http://www.w3.org/2000/svg">
<mask id="path-1-inside-1_38_239" fill="white">
<path d="M11 4.15463L7.405 3.89017L6 1.06641L4.595 3.89443L1 4.15463L3.73 6.17221L2.91 9.17086L6 7.57983L9.09 9.17086L8.275 6.17221L11 4.15463Z"/>
</mask>
<path d="M11 4.15463L11.2975 4.55647L12.3803 3.75481L11.0367 3.65598L11 4.15463ZM7.405 3.89017L6.95735 4.1129L7.08424 4.36792L7.36832 4.38882L7.405 3.89017ZM6 1.06641L6.44765 0.843672L5.99966 -0.0566892L5.55222 0.843942L6 1.06641ZM4.595 3.89443L4.63109 4.39313L4.91578 4.37252L5.04278 4.1169L4.595 3.89443ZM1 4.15463L0.963906 3.65593L-0.384041 3.75349L0.702828 4.55673L1 4.15463ZM3.73 6.17221L4.21229 6.3041L4.30264 5.97369L4.02717 5.77011L3.73 6.17221ZM2.91 9.17086L2.42771 9.03897L2.1277 10.136L3.13889 9.61539L2.91 9.17086ZM6 7.57983L6.22889 7.13529L6 7.01744L5.77111 7.13529L6 7.57983ZM9.09 9.17086L8.86111 9.61539L9.87017 10.135L9.5725 9.03972L9.09 9.17086ZM8.275 6.17221L7.97748 5.77037L7.7029 5.97366L7.7925 6.30335L8.275 6.17221ZM11.0367 3.65598L7.44168 3.39152L7.36832 4.38882L10.9633 4.65328L11.0367 3.65598ZM7.85265 3.66743L6.44765 0.843672L5.55235 1.28914L6.95735 4.1129L7.85265 3.66743ZM5.55222 0.843942L4.14722 3.67197L5.04278 4.1169L6.44778 1.28887L5.55222 0.843942ZM4.55891 3.39574L0.963906 3.65593L1.03609 4.65332L4.63109 4.39313L4.55891 3.39574ZM0.702828 4.55673L3.43283 6.57432L4.02717 5.77011L1.29717 3.75252L0.702828 4.55673ZM3.24771 6.04032L2.42771 9.03897L3.39229 9.30274L4.21229 6.3041L3.24771 6.04032ZM3.13889 9.61539L6.22889 8.02436L5.77111 7.13529L2.68111 8.72632L3.13889 9.61539ZM5.77111 8.02436L8.86111 9.61539L9.31889 8.72632L6.22889 7.13529L5.77111 8.02436ZM9.5725 9.03972L8.7575 6.04107L7.7925 6.30335L8.6075 9.30199L9.5725 9.03972ZM8.57252 6.57406L11.2975 4.55647L10.7025 3.75278L7.97748 5.77037L8.57252 6.57406Z" fill="#F2C94C" mask="url(#path-1-inside-1_38_239)"/>
</svg>
