<svg width="17" height="17" viewBox="0 0 17 17" fill="none" xmlns="http://www.w3.org/2000/svg">
<g clip-path="url(#clip0_537_465)">
<path fill-rule="evenodd" clip-rule="evenodd" d="M9.70143 3.76004C10.3379 3.12352 11.2013 2.76593 12.1014 2.76593C13.0016 2.76593 13.8649 3.12352 14.5014 3.76004C15.1379 4.39656 15.4955 5.25987 15.4955 6.16004C15.4955 7.06022 15.1379 7.92352 14.5014 8.56004L13.6281 9.43337L8.82809 14.2334L4.02809 9.43337L3.15476 8.56004C2.51824 7.92352 2.16064 7.06022 2.16064 6.16004C2.16064 5.25987 2.51824 4.39656 3.15476 3.76004C3.79128 3.12352 4.65458 2.76593 5.55476 2.76593C6.45493 2.76593 7.31824 3.12352 7.95476 3.76004L8.82809 4.63338L9.70143 3.76004Z" stroke="#E6704B" stroke-width="2" stroke-linecap="round" stroke-linejoin="round"/>
</g>
<defs>
<clipPath id="clip0_537_465">
<rect width="16" height="16" fill="white" transform="translate(0.828125 0.5)"/>
</clipPath>
</defs>
</svg>
