<?xml version="1.0" standalone="no"?>
<!DOCTYPE svg PUBLIC "-//W3C//DTD SVG 20010904//EN"
 "http://www.w3.org/TR/2001/REC-SVG-20010904/DTD/svg10.dtd">
<svg version="1.0" xmlns="http://www.w3.org/2000/svg"
 width="256.000000pt" height="256.000000pt" viewBox="0 0 256.000000 256.000000"
 preserveAspectRatio="xMidYMid meet">

<g transform="translate(0.000000,256.000000) scale(0.100000,-0.100000)"
fill="#000000" stroke="none">
<path d="M1330 1910 c-11 -11 -20 -30 -20 -43 0 -25 61 -133 139 -246 28 -41
51 -80 51 -87 0 -17 -40 -38 -51 -27 -5 5 -37 49 -72 98 -38 55 -73 93 -88 99
-66 23 -115 -32 -90 -101 11 -30 11 -37 -3 -51 -16 -16 -18 -16 -85 23 -35 20
-83 -1 -94 -42 -11 -36 10 -80 78 -165 47 -60 73 -71 116 -47 39 20 43 57 12
117 -27 53 -27 54 -8 68 11 8 24 13 30 11 5 -2 40 -45 76 -96 36 -51 72 -97
80 -102 24 -15 68 -10 90 12 17 17 20 30 17 82 -3 57 -1 62 18 65 20 3 60 -41
116 -129 21 -34 61 -44 92 -24 22 14 24 22 20 67 -3 27 -9 55 -15 61 -5 7 -70
104 -144 217 -173 265 -169 260 -211 260 -21 0 -42 -8 -54 -20z"/>
<path d="M854 1441 c-31 -19 -56 -61 -70 -115 l-7 -29 48 6 c26 4 61 7 77 7
36 0 78 40 78 75 0 32 -41 75 -72 75 -13 0 -37 -9 -54 -19z"/>
<path d="M1238 990 l3 -200 24 0 c23 0 25 4 25 49 0 28 3 52 8 55 4 2 37 -20
72 -50 49 -40 73 -54 98 -54 17 0 32 4 32 9 0 5 -36 39 -80 76 -44 37 -80 71
-80 75 0 5 38 41 85 81 47 39 85 73 85 75 0 2 -17 4 -38 4 -31 0 -49 -9 -102
-55 -36 -30 -68 -55 -72 -55 -5 0 -8 43 -8 95 l0 95 -27 0 -28 0 3 -200z"/>
<path d="M374 1096 c-58 -26 -102 -108 -90 -168 22 -113 151 -173 242 -113
l26 17 -21 21 c-16 17 -23 19 -33 9 -7 -7 -32 -12 -56 -12 -92 0 -137 101 -74
168 38 40 75 49 117 29 31 -15 34 -14 50 3 16 17 15 19 -10 36 -35 23 -112 28
-151 10z"/>
<path d="M695 1096 c-44 -20 -72 -55 -86 -107 -11 -41 -10 -53 5 -93 26 -68
74 -101 147 -101 67 0 101 20 137 81 75 127 -67 281 -203 220z m142 -71 c33
-33 35 -39 30 -82 -13 -114 -150 -143 -202 -43 -25 49 -19 88 19 126 28 28 42
34 76 34 35 0 48 -6 77 -35z"/>
<path d="M1059 1094 c-60 -25 -79 -72 -79 -198 l0 -106 25 0 c25 0 25 1 25 89
0 48 5 102 11 119 12 35 60 62 109 62 27 0 31 3 28 23 -2 18 -10 22 -43 24
-22 1 -56 -4 -76 -13z"/>
<path d="M1613 1095 c-38 -16 -53 -42 -53 -88 0 -47 26 -67 109 -81 81 -13 98
-24 82 -54 -21 -39 -98 -37 -130 2 -7 9 -24 16 -37 16 -47 0 -20 -57 43 -89
62 -32 163 4 183 65 18 54 -8 85 -86 102 -122 28 -131 35 -95 71 30 30 83 28
112 -4 14 -14 35 -25 52 -25 27 0 27 1 14 33 -24 59 -119 85 -194 52z"/>
<path d="M1891 1002 c3 -83 8 -115 22 -136 19 -28 73 -66 95 -66 26 0 11 44
-25 75 l-38 33 -3 101 c-4 100 -4 101 -29 101 l-25 0 3 -108z"/>
<path d="M2130 974 c0 -108 -3 -142 -16 -164 -25 -41 -64 -60 -128 -60 l-56 0
0 -31 0 -32 75 5 c61 4 80 10 110 32 59 45 65 67 65 236 l0 150 -25 0 -25 0 0
-136z"/>
</g>
</svg>
